<?xml version="1.0" encoding="UTF-8"?>
<svg width="100px" height="41px" viewBox="0 0 100 41" version="1.1" xmlns="http://www.w3.org/2000/svg" xmlns:xlink="http://www.w3.org/1999/xlink">
    <title>AR-EmaarMISR-Logo</title>
    <g id="Page-2" stroke="none" stroke-width="1" fill="none" fill-rule="evenodd">
        <g id="AR-EmaarMISR-Logo">
            <path d="M55.7349584,37.8068537 C59.7916545,37.8068537 57.0872897,32.6237647 61.3111279,32.6237647 C63.0582244,32.6237647 64,34.4206776 64,35.8019998 C64,37.2427337 62.9974455,38.8465586 60.9160648,38.8465586 C59.5485387,38.8465586 58.8802684,38.0593535 58.4244263,37.4503835 L58.3785442,37.3909718 C57.983779,37.8811183 57.4671581,38.1930298 56.616253,38.1930298 L41.3605908,38.193088 C40.8287751,40.5247063 39.2792101,41 38.0484367,41 L37.9876577,41 C37.7749314,41 37.5622052,40.9851471 37,40.9405883 C39.4004701,40.39103 40.6160488,39.4852927 40.6160488,36.4110281 L40.6160488,32.9505873 C40.6160488,32.5792641 40.6008541,32.4455878 40.0842331,32.2970585 L41.5885118,32 L41.5885118,35.9800019 C41.5885118,36.2030871 41.5733171,36.5001456 41.5581223,36.6783807 C41.5277329,37.0942627 41.4821487,37.4652946 41.4213697,37.806912 L43.4729866,37.8068828 C44.4910338,37.8068828 44.8857989,37.2279099 44.8857989,36.2773226 L44.8857989,33.5743811 C44.8857989,33.203058 44.8706042,33.1436462 44.3542812,32.995117 L45.8430672,32.6980584 L45.8430672,35.8911465 C47.0890354,33.4701194 48.8057424,32.0002621 49.7630107,32.0002621 C52.0267282,32.0002621 53.409449,34.2721775 53.5158121,37.8068828 L55.7349584,37.8068537 Z M61.0981037,32.965382 L61.0376227,32.965382 C59.2750335,32.965382 59.4725651,35.4900883 58.6219579,37.0347927 C59.0015283,37.4503835 59.7156808,38.4603825 60.9768438,38.4603825 C62.055372,38.4603825 62.9822507,37.3021454 62.9822507,35.8762644 C62.9822507,34.391263 62.3440719,33.0099408 61.0981037,32.965382 Z M49.808297,32.386147 C48.0311089,32.386147 45.8126777,36.3664402 45.5242757,37.8068828 L52.4521807,37.8068828 C52.4521807,34.2573245 51.176121,32.386147 49.808297,32.386147 Z" id="Combined-Shape" fill="#53555A"></path>
            <path d="M99.8614393,21.4399989 L99.8614393,22.347261 L98.0101529,22.347261 C97.4373792,22.347261 97.0784932,22.6801348 97.0784932,23.215929 C97.0784932,23.3217611 97.25568,24.0942455 97.9102785,24.0942455 L97.9102785,24.0942455 L99.8614393,24.0942455 L99.8614393,25 L95.4931374,25 L95.4931374,24.0942455 L96.1973723,24.0942455 L96.1402152,23.9293162 C95.799078,22.8740097 96.0358284,22.124139 96.8700204,21.6290495 C97.0784932,21.5051264 97.3378056,21.4399989 97.6467545,21.4399989 L97.6467545,21.4399989 L99.8614393,21.4399989 Z M7.80434243,5.54207778 C7.36625307,6.59884879 7.32532838,7.25688009 7.32257621,7.98383639 L7.32271917,13.6263286 C7.32271917,23.0025762 2.5567246,23.9680308 4.4408921e-16,23.8564699 L4.4408921e-16,23.8564699 L0.0965653132,23.5796781 C0.387163732,23.4913338 0.593831552,23.3906274 0.716568773,23.3342439 C2.84732302,22.3914029 4.60234494,18.4918946 4.60234494,13.1146557 L4.60234494,13.1146557 L4.60234494,8.35522341 C4.54669204,7.46514775 4.52864245,6.7749773 4.05123076,5.54207778 L4.05123076,5.54207778 Z M12.8543172,0 L16.8513992,0.00241212915 C16.4642355,0.905151464 16.3393925,1.65652969 16.3029925,2.2749393 C16.2896202,2.53526445 16.2991102,13.5976199 16.3021471,16.803786 L16.3029925,17.6661324 L34.6007656,17.6661324 C35.6744155,17.6661324 36.0934668,17.6513581 36.9032918,17.1158654 C35.4969278,14.9069581 35.2291922,13.3402803 35.2210699,11.5402289 C35.2210699,11.5402289 35.2186633,3.70593492 43.2799116,3.70593492 L43.2799116,3.70593492 L54.8295442,3.69960308 C54.4068829,4.56043167 54.3764994,5.23823997 54.3596531,5.82559341 L54.3596531,5.82559341 L54.3626614,17.0989805 C55.1180368,17.5814063 55.9784007,17.6598005 56.9693232,17.6661324 L56.9693232,17.6661324 L75.4163063,17.6661324 C74.9876285,17.0329485 73.2759256,15.1680711 73.2759256,11.6394277 C73.2759256,10.7378944 73.4350628,9.87465371 73.6967819,9.06568589 C73.8441869,8.59411465 75.5826634,3.72824712 80.631134,3.72824712 L80.631134,3.72824712 L89.7858867,3.72824712 L89.7858867,6.31917534 C89.7858867,6.31917534 89.1318899,5.5919184 87.255334,5.5919184 L87.255334,5.5919184 L81.4081689,5.5919184 C78.7016327,5.5919184 76.5705777,8.06736594 76.5705777,11.4907802 C76.5705777,12.9606714 77.359044,17.6706551 81.3988433,17.6706551 L81.3988433,17.6706551 L85.9921635,17.6706551 C88.4547294,17.6706551 89.5292817,17.0220939 89.7858867,16.8779692 L89.7858867,16.8779692 L89.0569841,19.5292006 L57.1149233,19.5292006 C55.2013658,19.5292006 53.8527605,19.3184408 52.7580527,18.6189234 C51.9109253,19.0491869 51.8745253,19.5292006 49.5352982,19.5292006 L49.5352982,19.5292006 L43.2356901,19.5261855 C39.8348462,19.5261855 39.4419668,19.0799416 38.5331699,18.6189234 C37.4324456,19.3133151 36.6430769,19.5292006 35.1542864,19.5292006 L35.1542864,19.5292006 L13.3236066,19.5292006 L13.3236066,2.2749393 C13.3181917,1.62336292 13.2700595,0.93439853 12.8543172,0 L12.8543172,0 Z M100,0.00232167431 C99.5824528,0.861039652 99.5478577,1.54035552 99.5322148,2.12529684 C99.5322148,2.12529684 99.5298081,17.3437212 99.5322148,17.4040244 C99.5478577,17.9913778 99.5824528,18.6685831 100,19.5294117 L100,19.5294117 L95.9385411,19.5294117 C96.3581941,18.6685831 96.3900817,17.9913778 96.4084322,17.4040244 C96.4100236,17.3641465 96.4095103,10.695548 96.4089799,6.18268534 L96.4084322,2.12529684 C96.3900817,1.54035552 96.3581941,0.861039652 95.9385411,0.00232167431 L95.9385411,0.00232167431 Z M51.819474,5.63744734 L43.5822422,5.63744734 C41.4785624,5.63744734 38.5094046,7.06301567 38.5094046,11.487162 C38.5094046,12.9546411 38.099378,17.6706551 43.591267,17.6706551 L43.591267,17.6706551 L49.4068453,17.6706551 C51.4617913,17.6706551 51.819474,16.1814669 51.819474,15.0742996 L51.819474,15.0742996 L51.819474,5.63744734 Z" id="Combined-Shape" fill="#5C5E5A"></path>
        </g>
    </g>
</svg>